<?xml version="1.0" standalone="no"?>
<!DOCTYPE svg PUBLIC "-//W3C//DTD SVG 20010904//EN"
 "http://www.w3.org/TR/2001/REC-SVG-20010904/DTD/svg10.dtd">
<svg version="1.0" xmlns="http://www.w3.org/2000/svg"
 width="700.000000pt" height="700.000000pt" viewBox="0 0 700.000000 700.000000"
 preserveAspectRatio="xMidYMid meet">
<metadata>
Created by potrace 1.11, written by Peter Selinger 2001-2013
</metadata>
<g transform="translate(0.000000,700.000000) scale(0.100000,-0.100000)"
fill="#000000" stroke="none">
<path d="M210 3500 l0 -3290 3290 0 3290 0 0 3290 0 3290 -3290 0 -3290 0 0
-3290z m6300 0 l0 -3010 -3010 0 -3010 0 0 3010 0 3010 3010 0 3010 0 0 -3010z"/>
<path d="M4545 5830 c-252 -36 -464 -146 -644 -335 -339 -357 -505 -1023 -450
-1810 l11 -161 -67 -109 c-341 -552 -685 -940 -910 -1024 -78 -29 -171 -28
-216 1 -44 30 -103 148 -123 248 -28 138 -38 376 -26 579 12 197 34 417 50
485 17 72 13 103 -16 125 -36 28 -124 28 -198 0 -60 -22 -91 -53 -101 -99 l-7
-30 -39 59 c-69 103 -160 155 -269 154 -210 -3 -397 -188 -460 -456 -27 -114
-42 -285 -35 -381 20 -246 107 -417 248 -485 56 -27 147 -37 202 -22 118 32
208 181 284 471 l28 104 6 -111 c25 -404 164 -711 354 -779 72 -25 210 -12
315 31 243 99 592 472 922 988 38 59 71 106 72 104 2 -2 13 -59 25 -127 11
-68 38 -185 60 -261 67 -240 144 -389 267 -521 l62 -65 -32 -58 c-37 -69 -49
-175 -28 -250 17 -61 77 -127 142 -156 68 -30 196 -32 278 -5 231 77 433 283
541 553 26 64 78 256 95 349 3 16 40 34 196 93 398 151 712 295 859 392 95 64
242 202 269 252 17 34 5 61 -32 65 -19 2 -33 -9 -70 -56 -119 -153 -304 -266
-712 -436 -151 -63 -472 -186 -486 -186 -4 0 -10 57 -13 128 -13 280 -104 487
-249 564 -35 19 -59 23 -133 23 -82 0 -96 -3 -157 -33 -89 -43 -165 -115 -234
-218 -101 -152 -156 -323 -198 -610 l-23 -159 -31 130 c-52 214 -112 615 -112
748 l0 33 128 43 c493 163 1009 577 1274 1022 201 336 240 707 98 928 -38 61
-141 159 -203 195 -98 57 -180 78 -322 82 -71 1 -157 -1 -190 -6z m329 -95
c91 -24 165 -65 236 -132 114 -107 156 -224 147 -408 -12 -228 -99 -444 -274
-681 -263 -354 -701 -676 -1111 -818 -57 -20 -108 -36 -112 -36 -16 0 -22 324
-11 525 25 431 93 745 215 999 143 294 367 500 601 551 83 18 238 18 309 0z
m-3186 -1975 c35 -22 83 -89 108 -155 15 -40 14 -47 -10 -151 -14 -60 -42
-181 -62 -269 -58 -256 -114 -415 -167 -472 -50 -55 -120 -10 -156 100 -39
122 -46 177 -45 362 1 204 16 283 79 410 84 172 165 228 253 175z m2749 -291
c63 -24 111 -99 139 -216 17 -72 21 -310 6 -386 -7 -38 -9 -39 -118 -86 -138
-59 -285 -139 -383 -210 -42 -29 -80 -55 -86 -57 -24 -10 18 338 65 534 69
286 173 432 307 432 23 0 54 -5 70 -11z m79 -882 c-83 -248 -210 -428 -352
-498 -49 -24 -75 -31 -129 -31 -64 -1 -70 0 -96 30 -54 60 -48 163 17 258 67
99 226 207 472 320 89 41 118 51 120 40 2 -8 -13 -62 -32 -119z"/>
</g>
</svg>
