<svg width="100" height="100" viewBox="0 0 100 100" version="1.1" xmlns="http://www.w3.org/2000/svg" xmlns:xlink="http://www.w3.org/1999/xlink">
<title>Group</title>
<desc>Created using Figma</desc>
<g id="Canvas" transform="translate(-61 516)">
<g id="Group">
<g id="Rectangle">
<use xlink:href="#path0_fill" transform="translate(61 -516)" fill="#FFFFFF"/>
</g>
<g id="Rectangle">
<use xlink:href="#path1_fill" transform="translate(66 -511)" fill="#FFFFFF"/>
<mask id="mask0_outline_out">
<rect id="mask0_outline_inv" fill="white" x="-2" y="-2" width="94" height="94" transform="translate(66 -511)"/>
<use xlink:href="#path1_fill" fill="black" transform="translate(66 -511)"/>
</mask>
<g mask="url(#mask0_outline_out)">
<use xlink:href="#path2_stroke_2x" transform="translate(66 -511)"/>
</g>
</g>
<g id="AB">
<use xlink:href="#path3_fill" transform="translate(66 -508)"/>
</g>
</g>
</g>
<defs>
<path id="path0_fill" d="M 0 0L 100 0L 100 100L 0 100L 0 0Z"/>
<path id="path1_fill" d="M 0 0L 90 0L 90 90L 0 90L 0 0Z"/>
<path id="path2_stroke_2x" d="M 0 0L 0 -2L -2 -2L -2 0L 0 0ZM 90 0L 92 0L 92 -2L 90 -2L 90 0ZM 90 90L 90 92L 92 92L 92 90L 90 90ZM 0 90L -2 90L -2 92L 0 92L 0 90ZM 0 2L 90 2L 90 -2L 0 -2L 0 2ZM 88 0L 88 90L 92 90L 92 0L 88 0ZM 90 88L 0 88L 0 92L 90 92L 90 88ZM 2 90L 2 0L -2 0L -2 90L 2 90Z"/>
<path id="path3_fill" d="M 9.90625 47C 9.90625 45.8958 10.0104 44.7604 10.2188 43.5938C 10.4062 42.4062 10.7396 41.3021 11.2188 40.2812C 11.9062 38.9271 12.7812 37.8854 13.8438 37.1562C 14.9062 36.4271 15.9896 36.0625 17.0938 36.0625C 17.9271 36.0625 18.7188 36.3229 19.4688 36.8438C 20.2188 37.3646 20.8646 38.1458 21.4062 39.1875C 21.4688 38.5417 21.6979 38.0521 22.0938 37.7188C 22.4896 37.4271 23.0208 37.1979 23.6875 37.0312C 23.9375 36.9688 24.1771 36.9375 24.4062 36.9375C 25.5729 36.9375 26.1562 37.3125 26.1562 38.0625C 26.1562 38.2708 26.0729 38.7604 25.9062 39.5312C 25.8229 40.0312 25.7396 40.6667 25.6562 41.4375C 25.5104 42.5625 25.3958 43.8542 25.3125 45.3125C 25.2292 46.4583 25.1875 47.6146 25.1875 48.7812C 25.2083 50.6146 25.3333 52.3229 25.5625 53.9062C 25.7917 55.1771 26.1562 56.2188 26.6562 57.0312C 27.1562 57.8229 27.8438 58.2188 28.7188 58.2188C 29.8646 58.2188 31.0833 57.75 32.375 56.8125C 33.6875 55.875 34.9896 54.6771 36.2812 53.2188C 37.5729 51.7604 38.8021 50.2083 39.9688 48.5625C 41.1354 46.9167 42.1771 45.3542 43.0938 43.875C 44.0104 42.3958 44.7396 41.1875 45.2812 40.25C 45.4271 40.0417 45.6146 39.9375 45.8438 39.9375C 45.9479 39.9375 46.0417 39.9688 46.125 40.0312C 46.3333 40.1771 46.4375 40.3542 46.4375 40.5625C 46.4375 40.6667 46.4062 40.7708 46.3438 40.875C 45.6562 42.0625 44.7917 43.4688 43.75 45.0938C 42.7083 46.7188 41.5417 48.3958 40.25 50.125C 38.9583 51.8542 37.625 53.4688 36.25 54.9688C 34.8958 56.4479 33.4688 57.6562 31.9688 58.5938C 30.4896 59.5312 28.8646 60 27.0938 60C 25.8438 60 24.7396 59.3854 23.7812 58.1562C 22.8438 56.9271 22.1146 55.3229 21.5938 53.3438C 21.0938 51.3438 20.8438 49.1771 20.8438 46.8438C 20.2188 49.8021 19.4792 51.9792 18.625 53.375C 17.7917 54.75 16.7604 55.4375 15.5312 55.4375C 13.8229 55.4375 12.4583 54.6979 11.4375 53.2188C 10.4167 51.7188 9.90625 49.6458 9.90625 47ZM 20.875 41.125C 20.75 40.7083 20.5729 40.2604 20.3438 39.7812C 20.1146 39.3021 19.8229 38.8854 19.4688 38.5312C 19.1146 38.1562 18.6875 37.9688 18.1875 37.9688C 17.7708 37.9688 17.3854 38.1458 17.0312 38.5C 16.6771 38.8333 16.3646 39.2292 16.0938 39.6875C 15.8229 40.125 15.6042 40.5104 15.4375 40.8438C 15 41.7604 14.6875 42.7708 14.5 43.875C 14.3333 44.9583 14.25 46 14.25 47C 14.25 47.9375 14.3854 49.125 14.6562 50.5625C 14.8646 51.4792 15.1146 52.2188 15.4062 52.7812C 15.7188 53.3229 16.1146 53.5938 16.5938 53.5938C 17.1146 53.5938 17.6042 53.0312 18.0625 51.9062C 18.5208 50.7604 18.9167 49.5208 19.25 48.1875C 19.5833 46.8542 19.8229 45.8021 19.9688 45.0312C 20.3229 43.3854 20.625 42.0833 20.875 41.125ZM 64.9688 49.8125C 65.4479 49.625 65.9271 49.4479 66.4062 49.2812C 70.0312 47.9688 73.3438 46.6042 76.3438 45.1875C 79.3646 43.75 81.4792 42.1042 82.6875 40.25C 82.8333 40.0417 83.0104 39.9375 83.2188 39.9375C 83.3229 39.9375 83.4271 39.9688 83.5312 40.0312C 83.7396 40.1562 83.8438 40.3333 83.8438 40.5625C 83.8438 40.6667 83.8125 40.7708 83.75 40.875C 82.4583 42.875 80.1875 44.6562 76.9375 46.2188C 73.7083 47.7604 70.2083 49.2188 66.4375 50.5938L 64.8125 51.2188C 64.375 54.2604 63.5417 56.7812 62.3125 58.7812C 61.1042 60.7604 59.7188 62.2396 58.1562 63.2188C 56.5938 64.1979 55.125 64.6875 53.75 64.6875C 52.5417 64.6875 51.5312 64.3542 50.7188 63.6875C 49.9271 63.0208 49.5312 62.0208 49.5312 60.6875C 49.5312 59.5833 49.8958 58.5729 50.625 57.6562C 48.8125 56.1354 47.4375 54.0417 46.5 51.375C 45.5625 48.6875 44.9375 45.8646 44.625 42.9062C 44.2917 39.9271 44.125 37.3646 44.125 35.2188C 44.125 31.7604 44.4583 28.4375 45.125 25.25C 45.7917 22.0625 46.8542 19.2188 48.3125 16.7188C 49.7708 14.2188 51.6667 12.2396 54 10.7812C 56.3333 9.30208 59.1667 8.5625 62.5 8.5625C 64.9792 8.5625 67.0729 9.35417 68.7812 10.9375C 70.5104 12.5208 71.375 14.5729 71.375 17.0938C 71.375 19.7812 70.6667 22.4167 69.25 25C 67.8333 27.5833 65.9896 29.9688 63.7188 32.1562C 61.4688 34.3438 59.0312 36.2083 56.4062 37.75C 53.7812 39.2917 51.2083 40.3854 48.6875 41.0312C 48.9375 45.6771 49.6458 50.0521 50.8125 54.1562C 50.9375 52.4688 51.2083 50.6562 51.625 48.7188C 52.0417 46.7812 52.6771 45.0833 53.5312 43.625C 54.3646 42.25 55.2917 41.2083 56.3125 40.5C 57.3333 39.7708 58.3542 39.4062 59.375 39.4062C 60.6458 39.4062 61.6562 39.7812 62.4062 40.5312C 63.1771 41.2604 63.75 42.1875 64.125 43.3125C 64.5208 44.4167 64.7812 45.5521 64.9062 46.7188C 64.9688 47.4479 65 48.125 65 48.75C 65 49.125 64.9896 49.4792 64.9688 49.8125ZM 48.5938 39.75C 50.9688 39.125 53.4062 38.0729 55.9062 36.5938C 58.4062 35.1146 60.7292 33.3438 62.875 31.2812C 65.0208 29.2188 66.7708 26.9688 68.125 24.5312C 69.4792 22.0938 70.1562 19.6146 70.1562 17.0938C 70.1562 14.9062 69.4167 13.1458 67.9375 11.8125C 66.4583 10.4792 64.6458 9.8125 62.5 9.8125C 60.5625 9.8125 58.8021 10.3125 57.2188 11.3125C 55.6562 12.3125 54.3229 13.6042 53.2188 15.1875C 51.9479 17.0417 50.9688 19.1042 50.2812 21.375C 49.5938 23.6458 49.1146 25.9792 48.8438 28.375C 48.5938 30.7708 48.4688 33.0521 48.4688 35.2188C 48.4688 36.5729 48.5104 38.0833 48.5938 39.75ZM 60.0938 53.0938C 58.3021 53.8438 56.7083 54.6146 55.3125 55.4062C 53.9167 56.1771 52.8021 57 51.9688 57.875C 51.1562 58.75 50.75 59.6875 50.75 60.6875C 50.75 61.2708 50.875 61.7396 51.125 62.0938C 51.375 62.4688 51.8229 62.6562 52.4688 62.6562C 53.7188 62.6562 54.8438 62.1979 55.8438 61.2812C 56.8646 60.3646 57.7292 59.1875 58.4375 57.75C 59.1667 56.2917 59.7188 54.7396 60.0938 53.0938ZM 51.9062 56.2812C 54.0104 54.5521 56.8333 52.9896 60.375 51.5938C 60.5625 50.4062 60.6562 49.2812 60.6562 48.2188C 60.6562 47.8229 60.6458 47.4271 60.625 47.0312C 60.5 45.6354 60.1771 44.4896 59.6562 43.5938C 59.1562 42.6979 58.4167 42.25 57.4375 42.25C 56.5833 42.25 55.8438 42.6042 55.2188 43.3125C 54.6146 44.0208 54.1042 44.9375 53.6875 46.0625C 53.2917 47.1667 52.9688 48.3542 52.7188 49.625C 52.4688 50.8958 52.2812 52.125 52.1562 53.3125C 52.0312 54.4792 51.9479 55.4688 51.9062 56.2812Z"/>
</defs>
</svg>
